<svg xmlns="http://www.w3.org/2000/svg" width="180.38" height="47.717" viewBox="0 0 180.38 47.717">
  <g id="Group_42" data-name="Group 42" transform="translate(-295.1 -461.197)">
    <g id="Group_4" data-name="Group 4">
      <path id="Path_4" data-name="Path 4" d="M313.09,487.544A7.118,7.118,0,0,0,310,484.7a11.2,11.2,0,0,0-5.05-1.03H295.1v24.95h6.08v-8.96h3.77a10.687,10.687,0,0,0,5.12-1.1,7.348,7.348,0,0,0,3.06-2.9,8.026,8.026,0,0,0,.99-3.96A8.255,8.255,0,0,0,313.09,487.544Zm-6.01,6.47a3.579,3.579,0,0,1-2.59.82h-3.31v-6.26h3.31a3.624,3.624,0,0,1,2.59.82,3.532,3.532,0,0,1,0,4.62Z" fill="#f9f9f9"/>
      <path id="Path_5" data-name="Path 5" d="M326.03,489.514a8.082,8.082,0,0,0-2.66,2.58v-3.3h-6.08v19.83h6.08v-9.2a4.326,4.326,0,0,1,1.13-3.43,5.1,5.1,0,0,1,3.42-.98h1.67v-6.44A6.962,6.962,0,0,0,326.03,489.514Z" fill="#f9f9f9"/>
      <path id="Path_6" data-name="Path 6" d="M332.5,488.794v19.83h6.08v-19.83Zm5.64-7.7a4.052,4.052,0,0,0-5.19,0,3.089,3.089,0,0,0-1.02,2.36,3.041,3.041,0,0,0,1.02,2.33,4.052,4.052,0,0,0,5.19,0,3.066,3.066,0,0,0,1.01-2.33A3.115,3.115,0,0,0,338.14,481.094Z" fill="#f9f9f9"/>
      <path id="Path_7" data-name="Path 7" d="M360.64,490.834a7.219,7.219,0,0,0-5.56-2.26,7.882,7.882,0,0,0-3.52.77,6.3,6.3,0,0,0-2.49,2.08v-2.63h-6.08v19.83h6.08v-10.77a4.321,4.321,0,0,1,1.03-3.09,4.038,4.038,0,0,1,5.54,0,4.325,4.325,0,0,1,1.04,3.09v10.77h6.04v-11.59A8.789,8.789,0,0,0,360.64,490.834Z" fill="#f9f9f9"/>
      <path id="Path_8" data-name="Path 8" d="M375.84,503.474a2.109,2.109,0,0,1-1.43-.39,1.685,1.685,0,0,1-.42-1.28v-7.97h.73l-2.4-2.4a19.682,19.682,0,0,1-4.41-6.11v3.47h-2.42v5.04h2.42v7.9q0,3.66,1.85,5.28a7.6,7.6,0,0,0,5.15,1.61h3.1v-5.15Z" fill="#f9f9f9"/>
      <path id="Path_9" data-name="Path 9" d="M388.65,503.254a1.638,1.638,0,0,0-.25-.21,4.271,4.271,0,0,0-.44-.3,3.937,3.937,0,0,0-1.89-.44,3.784,3.784,0,0,0-2.23.64,3.679,3.679,0,0,0-.38.31,3.443,3.443,0,0,0-.26.28,3.151,3.151,0,0,0-.75,2.11,3.081,3.081,0,0,0,1.01,2.33,3.731,3.731,0,0,0,2.61.94,3.655,3.655,0,0,0,2.58-.94,3.047,3.047,0,0,0,1.01-2.33A3.144,3.144,0,0,0,388.65,503.254Z" fill="#00e269"/>
      <path id="Path_10" data-name="Path 10" d="M409.22,483.674v9.77h-9.46v-2.48c-.16.16-.32.32-.48.47l-5.6,5.6v11.59h6.08v-10.27h9.46v10.27h6.08v-24.95Z" fill="#f9f9f9"/>
      <path id="Path_11" data-name="Path 11" d="M438.37,498.384a10.351,10.351,0,0,0-1.27-5.22,8.674,8.674,0,0,0-3.5-3.45,10.555,10.555,0,0,0-5.12-1.21,10.69,10.69,0,0,0-5.22,1.25,8.709,8.709,0,0,0-3.54,3.55,12.137,12.137,0,0,0,.02,10.81,8.854,8.854,0,0,0,3.55,3.55,10.654,10.654,0,0,0,5.19,1.25,10.515,10.515,0,0,0,4.38-.89,8.9,8.9,0,0,0,5.04-5.97h-6.47a3.184,3.184,0,0,1-3.16,1.92,3.654,3.654,0,0,1-2.58-.98,4.164,4.164,0,0,1-1.19-2.83h13.76A15.742,15.742,0,0,0,438.37,498.384Zm-13.83-1.6a3.927,3.927,0,0,1,1.3-2.52,3.826,3.826,0,0,1,2.57-.89,3.913,3.913,0,0,1,2.67.93,3.109,3.109,0,0,1,1.07,2.48Z" fill="#f9f9f9"/>
      <path id="Path_12" data-name="Path 12" d="M450.31,489.514a7.988,7.988,0,0,0-2.66,2.58v-3.3h-6.08v19.83h6.08v-9.2a4.326,4.326,0,0,1,1.13-3.43,5.1,5.1,0,0,1,3.42-.98h1.67v-6.44A6.962,6.962,0,0,0,450.31,489.514Z" fill="#f9f9f9"/>
      <path id="Path_13" data-name="Path 13" d="M475.48,498.384a10.452,10.452,0,0,0-1.26-5.22,8.736,8.736,0,0,0-3.5-3.45,10.582,10.582,0,0,0-5.12-1.21,10.729,10.729,0,0,0-5.23,1.25,8.769,8.769,0,0,0-3.54,3.55,12.137,12.137,0,0,0,.02,10.81,8.878,8.878,0,0,0,3.56,3.55,10.6,10.6,0,0,0,5.19,1.25,10.469,10.469,0,0,0,4.37-.89,8.949,8.949,0,0,0,5.05-5.97h-6.47a3.2,3.2,0,0,1-3.17,1.92,3.63,3.63,0,0,1-2.57-.98,4.119,4.119,0,0,1-1.19-2.83h13.75A15.735,15.735,0,0,0,475.48,498.384Zm-13.83-1.6a3.974,3.974,0,0,1,1.3-2.52,4.227,4.227,0,0,1,5.24.04,3.109,3.109,0,0,1,1.07,2.48Z" fill="#f9f9f9"/>
    </g>
    <path id="Path_14" data-name="Path 14" d="M386.066,502.309a3.649,3.649,0,0,0-2.61.95,3.443,3.443,0,0,0-.26.28l2.38,2.64,2.82-3.13A3.631,3.631,0,0,0,386.066,502.309Z" fill="#00e269"/>
    <g id="Path_15" data-name="Path 15" fill="none" stroke-miterlimit="10">
      <path d="M386.07,502.3a3.937,3.937,0,0,1,1.89.44l-2.16,2.16-1.96-1.96A3.784,3.784,0,0,1,386.07,502.3Z" stroke="none"/>
      <path d="M 386.0700073242188 502.3039855957031 C 386.7900085449219 502.3039855957031 387.4200134277344 502.4540100097656 387.9599914550781 502.7439880371094 L 385.7999877929688 504.9039916992188 L 383.8399963378906 502.9440002441406 C 384.4500122070312 502.5140075683594 385.2000122070312 502.3039855957031 386.0700073242188 502.3039855957031 Z" stroke="none" fill="#00e269"/>
    </g>
    <g id="Path_16" data-name="Path 16" fill="none" stroke-miterlimit="10">
      <path d="M401.5,476.91a15.669,15.669,0,0,1-5.01,11.505l-10.7,10.7-10.7-10.7A15.711,15.711,0,1,1,401.5,476.91Z" stroke="none"/>
      <path d="M 385.7869873046875 467.1969909667969 C 380.4317932128906 467.1969909667969 376.0750122070312 471.5542297363281 376.0750122070312 476.9100036621094 C 376.0750122070312 479.6423645019531 377.1737976074219 482.1652221679688 379.3336486816406 484.17236328125 L 385.7894287109375 490.6281433105469 L 392.4024963378906 484.022705078125 C 394.3999328613281 482.1638488769531 395.5 479.6378479003906 395.5 476.9100036621094 C 395.5 471.5542297363281 391.1427612304688 467.1969909667969 385.7869873046875 467.1969909667969 M 385.7869873046875 461.1969909667969 C 394.4630126953125 461.1969909667969 401.5 468.2269897460938 401.5 476.9100036621094 C 401.5 481.4519958496094 399.5740051269531 485.5450134277344 396.489990234375 488.4150085449219 L 385.7869873046875 499.1109924316406 L 375.0910034179688 488.4150085449219 C 372.0010070800781 485.552001953125 370.0750122070312 481.4519958496094 370.0750122070312 476.9100036621094 C 370.0750122070312 468.2269897460938 377.1050109863281 461.1969909667969 385.7869873046875 461.1969909667969 Z" stroke="none" fill="#00e269"/>
    </g>
    <g id="Ellipse_2" data-name="Ellipse 2" transform="translate(370.075 461.197)" fill="none" stroke="#00e269" stroke-miterlimit="10" stroke-width="6">
      <circle cx="15.713" cy="15.713" r="15.713" stroke="none"/>
      <circle cx="15.713" cy="15.713" r="12.713" fill="none"/>
    </g>
  </g>
</svg>
