<?xml version="1.0" encoding="utf-8"?>
<!-- Generator: Adobe Illustrator 26.5.0, SVG Export Plug-In . SVG Version: 6.00 Build 0)  -->
<svg version="1.1" id="Layer_1" xmlns="http://www.w3.org/2000/svg" xmlns:xlink="http://www.w3.org/1999/xlink" x="0px" y="0px"
	 viewBox="0 0 180.38 47.72" style="enable-background:new 0 0 180.38 47.72;" xml:space="preserve">
<style type="text/css">
	.st0{fill:#1A1818;}
	.st1{fill:#58BB61;}
</style>
<g id="Group_5_00000007395406371101283340000011873464606183720605_" transform="translate(-295.1 -461.197)">
	<g id="Group_4_00000030475558103586566250000015554835722816165310_">
		<path id="Path_4_00000049213980309480808580000013808583541129281967_" class="st0" d="M313.09,487.54
			c-0.72-1.24-1.8-2.23-3.09-2.84c-1.58-0.73-3.31-1.08-5.05-1.03h-9.85v24.95h6.08v-8.96h3.77c1.77,0.06,3.53-0.31,5.12-1.1
			c1.28-0.65,2.35-1.66,3.06-2.9c0.67-1.21,1.01-2.58,0.99-3.96C314.15,490.25,313.79,488.81,313.09,487.54z M307.08,494.01
			c-0.72,0.6-1.65,0.9-2.59,0.82h-3.31v-6.26h3.31c0.94-0.07,1.87,0.22,2.59,0.82C308.23,490.72,308.23,492.69,307.08,494.01z"/>
		<path id="Path_5_00000008127958347704812810000003999557417391709619_" class="st0" d="M326.03,489.51
			c-1.07,0.64-1.99,1.53-2.66,2.58v-3.3h-6.08v19.83h6.08v-9.2c-0.14-1.25,0.27-2.51,1.13-3.43c0.99-0.73,2.2-1.07,3.42-0.98h1.67
			v-6.44C328.34,488.56,327.11,488.89,326.03,489.51z"/>
		<path id="Path_6_00000114762870453295369430000013120742248253713842_" class="st0" d="M332.5,488.79v19.83h6.08v-19.83H332.5z
			 M338.14,481.09c-1.5-1.25-3.69-1.25-5.19,0c-0.67,0.6-1.04,1.46-1.02,2.36c-0.02,0.89,0.36,1.74,1.02,2.33
			c1.5,1.25,3.69,1.25,5.19,0c0.66-0.59,1.03-1.44,1.01-2.33C339.17,482.56,338.8,481.7,338.14,481.09z"/>
		<path id="Path_7_00000106868716766858723130000013031980972273869197_" class="st0" d="M360.64,490.83
			c-1.44-1.52-3.47-2.35-5.56-2.26c-1.22-0.02-2.42,0.24-3.52,0.77c-1,0.46-1.86,1.18-2.49,2.08v-2.63h-6.08v19.83h6.08v-10.77
			c-0.07-1.12,0.3-2.23,1.03-3.09c1.56-1.47,3.98-1.47,5.54,0c0.74,0.85,1.11,1.96,1.04,3.09v10.77h6.04v-11.59
			C362.85,494.78,362.11,492.56,360.64,490.83z"/>
		<path id="Path_8_00000002365930261162400110000014660063298867595195_" class="st0" d="M375.84,503.47
			c-0.51,0.05-1.02-0.09-1.43-0.39c-0.31-0.35-0.46-0.81-0.42-1.28v-7.97h0.73l-2.4-2.4c-1.85-1.73-3.35-3.81-4.41-6.11v3.47h-2.42
			v5.04h2.42v7.9c0,2.44,0.62,4.2,1.85,5.28c1.46,1.15,3.29,1.72,5.15,1.61h3.1v-5.15H375.84z"/>
		<path id="Path_10_00000153680572901091485450000015129295890098833578_" class="st0" d="M409.22,483.67v9.77h-9.46v-2.48
			c-0.16,0.16-0.32,0.32-0.48,0.47l-5.6,5.6v11.59h6.08v-10.27h9.46v10.27h6.08v-24.95L409.22,483.67z"/>
		<path id="Path_11_00000034082339861702166520000018271029280304393126_" class="st0" d="M438.37,498.38
			c0.04-1.82-0.39-3.62-1.27-5.22c-0.81-1.46-2.03-2.66-3.5-3.45c-1.58-0.83-3.34-1.25-5.12-1.21c-1.82-0.03-3.61,0.4-5.22,1.25
			c-1.5,0.81-2.73,2.05-3.54,3.55c-1.69,3.41-1.68,7.41,0.02,10.81c0.82,1.5,2.05,2.73,3.55,3.55c1.6,0.85,3.38,1.28,5.19,1.25
			c1.51,0.02,3-0.28,4.38-0.89c2.51-1.11,4.37-3.31,5.04-5.97h-6.47c-0.54,1.25-1.8,2.02-3.16,1.92c-0.96,0.02-1.88-0.33-2.58-0.98
			c-0.74-0.76-1.17-1.77-1.19-2.83h13.76C438.33,499.57,438.37,498.98,438.37,498.38z M424.54,496.78c0.1-0.97,0.57-1.87,1.3-2.52
			c0.72-0.6,1.63-0.92,2.57-0.89c0.97-0.03,1.93,0.3,2.67,0.93c0.72,0.62,1.11,1.53,1.07,2.48H424.54z"/>
		<path id="Path_12_00000071520582411733593270000010350935525770306178_" class="st0" d="M450.31,489.51
			c-1.08,0.64-1.99,1.52-2.66,2.58v-3.3h-6.08v19.83h6.08v-9.2c-0.14-1.25,0.27-2.51,1.13-3.43c0.99-0.73,2.2-1.07,3.42-0.98h1.67
			v-6.44C452.62,488.56,451.39,488.89,450.31,489.51z"/>
		<path id="Path_13_00000140717364322379618680000000098278383625276083_" class="st0" d="M475.48,498.38
			c0.04-1.82-0.39-3.62-1.26-5.22c-0.81-1.46-2.03-2.66-3.5-3.45c-1.58-0.83-3.34-1.24-5.12-1.21c-1.82-0.03-3.62,0.4-5.23,1.25
			c-1.5,0.81-2.73,2.05-3.54,3.55c-1.69,3.41-1.68,7.41,0.02,10.81c0.82,1.5,2.06,2.73,3.56,3.55c1.6,0.85,3.38,1.28,5.19,1.25
			c1.5,0.02,2.99-0.28,4.37-0.89c2.51-1.11,4.37-3.31,5.05-5.97h-6.47c-0.54,1.25-1.81,2.02-3.17,1.92
			c-0.95,0.02-1.88-0.33-2.57-0.98c-0.75-0.75-1.17-1.77-1.19-2.83h13.75C475.44,499.57,475.48,498.98,475.48,498.38z
			 M461.65,496.78c0.11-0.97,0.57-1.87,1.3-2.52c1.55-1.2,3.71-1.18,5.24,0.04c0.72,0.62,1.11,1.53,1.07,2.48L461.65,496.78z"/>
	</g>
	<g>
		<path class="st1" d="M388.4,503.05c-0.14-0.11-0.28-0.21-0.44-0.3v-0.01c-0.1-0.05-0.2-0.1-0.31-0.13c0,0-0.01-0.01-0.02-0.01
			c-0.03-0.02-0.06-0.03-0.09-0.04c-0.03-0.01-0.06-0.02-0.09-0.03c-0.03-0.02-0.06-0.03-0.09-0.03c-0.06-0.02-0.11-0.04-0.18-0.05
			c-0.02-0.01-0.05-0.02-0.08-0.02c-0.01-0.01-0.02-0.01-0.03-0.01c-0.01,0-0.02-0.01-0.03-0.01c-0.08-0.02-0.16-0.04-0.24-0.05
			c-0.01-0.01-0.02-0.01-0.03,0c-0.05-0.02-0.09-0.02-0.13-0.02c-0.03-0.01-0.07-0.02-0.1-0.01c-0.05-0.01-0.1-0.01-0.15-0.01
			c-0.11-0.02-0.21-0.02-0.32-0.02c-0.05,0-0.09,0.01-0.14,0.01h-0.01c-0.06,0-0.11,0.01-0.17,0.01s-0.11,0-0.17,0.01
			c-0.07,0-0.13,0.01-0.2,0.02c-0.04,0-0.09,0.01-0.13,0.02c-0.05,0.01-0.09,0.02-0.14,0.03c-0.06,0.01-0.13,0.03-0.19,0.05
			c-0.11,0.03-0.21,0.06-0.32,0.1c0,0-0.01,0.01-0.02,0.01s-0.02,0.01-0.03,0.01c-0.08,0.03-0.15,0.07-0.23,0.1
			c-0.04,0.02-0.09,0.04-0.13,0.07c-0.12,0.06-0.24,0.12-0.35,0.2v0.01c-0.03,0.02-0.05,0.04-0.08,0.06c-0.1,0.08-0.2,0.16-0.3,0.25
			c-0.09,0.09-0.18,0.18-0.26,0.28c-0.5,0.59-0.76,1.34-0.75,2.11c-0.01,0.88,0.36,1.73,1.01,2.33c0.72,0.63,1.66,0.97,2.61,0.94
			c0.95,0.03,1.88-0.31,2.58-0.94c0.66-0.6,1.03-1.45,1.01-2.33c0.03-0.91-0.34-1.78-1.01-2.39
			C388.58,503.18,388.49,503.11,388.4,503.05z"/>
		<path class="st1" d="M401.19,473.74c-0.01-0.03-0.01-0.07-0.03-0.11c-0.06-0.27-0.13-0.54-0.2-0.81c-0.08-0.3-0.17-0.6-0.27-0.9
			c-0.06-0.18-0.12-0.36-0.19-0.54c-0.07-0.2-0.15-0.39-0.24-0.59c-0.02-0.06-0.05-0.13-0.08-0.19c0-0.03-0.02-0.05-0.03-0.07
			c-0.06-0.14-0.12-0.28-0.19-0.42c0-0.01,0-0.01,0-0.01c-0.02-0.04-0.04-0.09-0.07-0.13c-0.01-0.02-0.02-0.04-0.03-0.06
			c-0.02-0.03-0.03-0.06-0.04-0.08c0,0-0.01-0.01-0.01-0.01c-0.05-0.09-0.09-0.19-0.15-0.29c-0.01-0.04-0.03-0.07-0.05-0.1v-0.01
			c-0.02-0.03-0.03-0.06-0.06-0.09c-0.04-0.09-0.09-0.18-0.15-0.26c-0.05-0.1-0.11-0.2-0.17-0.3v-0.01
			c-0.06-0.08-0.11-0.17-0.16-0.25c-0.03-0.05-0.07-0.11-0.11-0.16c-0.04-0.08-0.09-0.15-0.14-0.23c-0.06-0.07-0.11-0.15-0.17-0.22
			c0-0.02-0.01-0.03-0.03-0.05c-0.07-0.11-0.15-0.22-0.24-0.33c-0.03-0.04-0.06-0.09-0.1-0.13c-0.03-0.05-0.07-0.1-0.11-0.15
			c-0.05-0.07-0.1-0.13-0.15-0.19c-0.11-0.14-0.22-0.27-0.34-0.4c-0.02-0.03-0.04-0.05-0.06-0.07c-0.07-0.08-0.13-0.15-0.2-0.22
			c-0.01-0.02-0.03-0.04-0.05-0.06c-0.15-0.17-0.31-0.33-0.47-0.49c-0.11-0.12-0.23-0.23-0.35-0.34c-0.03-0.03-0.07-0.06-0.1-0.09
			c-0.03-0.04-0.06-0.07-0.1-0.1c-0.14-0.13-0.29-0.26-0.44-0.38c-0.02-0.02-0.04-0.04-0.06-0.05c-0.02-0.02-0.05-0.04-0.07-0.06
			c-0.13-0.11-0.26-0.21-0.4-0.32c-0.03-0.03-0.06-0.05-0.1-0.08c-0.03-0.02-0.06-0.05-0.09-0.07c-0.2-0.15-0.4-0.3-0.61-0.43
			c-0.17-0.12-0.33-0.22-0.5-0.33c-0.05-0.03-0.09-0.06-0.14-0.09c-0.07-0.04-0.14-0.08-0.21-0.12c-0.15-0.09-0.3-0.17-0.45-0.25
			c-0.21-0.12-0.42-0.22-0.64-0.33c-0.05-0.02-0.1-0.05-0.15-0.07c-0.12-0.06-0.24-0.12-0.37-0.17c-0.21-0.09-0.42-0.18-0.63-0.26
			c-0.01-0.01-0.02-0.01-0.04-0.02c-0.04-0.01-0.08-0.03-0.13-0.05c-0.1-0.03-0.2-0.07-0.3-0.11c-0.18-0.06-0.37-0.12-0.56-0.18
			c-0.16-0.05-0.32-0.1-0.49-0.15c-0.18-0.05-0.37-0.09-0.55-0.14c-0.14-0.03-0.28-0.06-0.42-0.09c-0.04-0.01-0.09-0.02-0.15-0.03
			c-0.14-0.03-0.29-0.06-0.44-0.08c-0.17-0.03-0.34-0.06-0.52-0.08c-0.22-0.03-0.44-0.05-0.65-0.07c-0.24-0.03-0.48-0.04-0.72-0.05
			c-0.24-0.01-0.49-0.02-0.73-0.02c-0.8,0-1.58,0.06-2.35,0.18c-0.16,0.02-0.32,0.05-0.48,0.08c-0.12,0.02-0.23,0.04-0.34,0.06
			c-0.51,0.11-1.01,0.23-1.5,0.39c-0.29,0.09-0.57,0.19-0.86,0.29c-0.21,0.09-0.43,0.17-0.64,0.26c-0.21,0.09-0.43,0.19-0.63,0.29
			c-0.01,0-0.01,0-0.01,0c-0.03,0.01-0.06,0.03-0.09,0.04c-0.2,0.1-0.4,0.2-0.59,0.31c-0.42,0.23-0.83,0.48-1.23,0.75
			c-0.01,0-0.01,0.01-0.02,0.01c-0.07,0.05-0.14,0.1-0.21,0.15c-0.17,0.12-0.34,0.25-0.51,0.37c-0.04,0.03-0.08,0.06-0.11,0.08
			c-0.07,0.05-0.14,0.11-0.21,0.16c-0.07,0.05-0.14,0.1-0.21,0.17c0,0.01,0,0.01-0.01,0l-0.21,0.18c-0.15,0.13-0.3,0.26-0.44,0.4
			c-0.13,0.11-0.26,0.23-0.38,0.36c-0.32,0.31-0.62,0.63-0.9,0.97c-0.02,0.03-0.05,0.06-0.08,0.09c-0.04,0.04-0.08,0.08-0.11,0.12
			v0.01c-0.06,0.08-0.13,0.17-0.2,0.25c-0.16,0.19-0.31,0.39-0.45,0.59c-0.07,0.09-0.13,0.18-0.2,0.28
			c-0.16,0.24-0.32,0.48-0.47,0.73c0,0.01-0.01,0.02-0.02,0.04c-0.03,0.05-0.06,0.1-0.1,0.16c-0.08,0.15-0.17,0.3-0.25,0.45v0.01
			c-0.1,0.18-0.2,0.36-0.29,0.55c-0.06,0.13-0.12,0.26-0.18,0.39c-0.05,0.11-0.1,0.22-0.15,0.33c-0.09,0.2-0.17,0.41-0.25,0.61
			c-0.06,0.16-0.12,0.32-0.17,0.48c-0.08,0.23-0.16,0.47-0.22,0.7c-0.03,0.06-0.04,0.12-0.06,0.18c0,0.01-0.01,0.02-0.01,0.03
			c-0.01,0.07-0.03,0.13-0.05,0.2c-0.04,0.15-0.08,0.3-0.11,0.45c-0.01,0.05-0.02,0.1-0.03,0.14c-0.01,0.05-0.02,0.09-0.03,0.14
			c-0.05,0.21-0.09,0.42-0.12,0.63c-0.03,0.17-0.06,0.34-0.08,0.51c-0.04,0.24-0.06,0.48-0.08,0.71c-0.03,0.24-0.04,0.48-0.05,0.72
			s-0.02,0.48-0.02,0.72c0,0.95,0.08,1.88,0.25,2.78c0.02,0.13,0.04,0.26,0.07,0.39c0,0.01,0.01,0.04,0.01,0.06
			c0.01,0.03,0.01,0.06,0.02,0.09c0.02,0.09,0.04,0.18,0.07,0.28c0.02,0.11,0.05,0.21,0.07,0.32c0.01,0.03,0.02,0.06,0.03,0.09
			c0,0.01,0,0.02,0.01,0.04c0.02,0.08,0.04,0.17,0.07,0.25c0.03,0.13,0.07,0.25,0.11,0.38c0.03,0.09,0.06,0.19,0.09,0.28
			c0.03,0.09,0.06,0.18,0.09,0.28c0.02,0.04,0.03,0.08,0.05,0.12c0.01,0.03,0.02,0.05,0.02,0.08c0.08,0.2,0.16,0.4,0.24,0.59
			c0.01,0.03,0.02,0.06,0.04,0.09c0.01,0.04,0.03,0.08,0.05,0.12c0.05,0.13,0.11,0.26,0.18,0.39c0.02,0.06,0.05,0.12,0.08,0.18
			c0.01,0.02,0.02,0.05,0.03,0.07c0.02,0.04,0.05,0.09,0.07,0.14c0.05,0.09,0.1,0.19,0.15,0.28c0.05,0.11,0.1,0.22,0.16,0.32
			c0.07,0.12,0.14,0.24,0.21,0.35c0.03,0.06,0.06,0.11,0.09,0.16c0.01,0.01,0.01,0.02,0.02,0.03c0.07,0.11,0.14,0.22,0.21,0.33
			c0.07,0.11,0.13,0.21,0.21,0.32c0.07,0.11,0.15,0.22,0.23,0.33c0.08,0.12,0.16,0.23,0.25,0.35c0.05,0.06,0.1,0.13,0.15,0.19
			s0.1,0.13,0.16,0.19c0.04,0.05,0.08,0.09,0.1,0.13c0.11,0.13,0.22,0.26,0.33,0.38c0.07,0.09,0.16,0.19,0.25,0.28
			c0.11,0.13,0.23,0.26,0.36,0.38c0.05,0.05,0.11,0.11,0.17,0.16c0,0.01,0.01,0.01,0.01,0.02c0.06,0.06,0.13,0.12,0.19,0.18
			c0.04,0.05,0.07,0.08,0.11,0.11l10.7,10.7l10.7-10.7c0.02-0.01,0.04-0.03,0.06-0.06l0.06-0.06c0.1-0.09,0.2-0.18,0.29-0.28
			l0.04-0.04c0.04-0.04,0.08-0.08,0.13-0.13c0.14-0.14,0.28-0.29,0.42-0.45c0.06-0.07,0.13-0.15,0.2-0.23
			c0.08-0.09,0.15-0.18,0.23-0.27c0.03-0.03,0.05-0.06,0.08-0.09c0.03-0.04,0.07-0.08,0.1-0.12c0.07-0.09,0.14-0.18,0.2-0.27
			c0.06-0.07,0.11-0.15,0.17-0.23c0.09-0.11,0.17-0.23,0.25-0.35c0.07-0.1,0.14-0.2,0.21-0.31c0.08-0.11,0.15-0.22,0.22-0.34
			c0.03-0.04,0.06-0.09,0.08-0.13c0.02-0.03,0.04-0.07,0.07-0.12c0.04-0.07,0.09-0.14,0.13-0.22c0.02-0.04,0.04-0.07,0.06-0.1
			c0.01-0.01,0.02-0.03,0.02-0.04c0.02-0.03,0.04-0.07,0.05-0.1c0.07-0.11,0.13-0.23,0.19-0.35c0.04-0.07,0.07-0.13,0.1-0.2
			c0.04-0.07,0.07-0.14,0.11-0.21c0.07-0.15,0.14-0.29,0.19-0.43c0.02-0.02,0.03-0.05,0.04-0.08c0.03-0.06,0.06-0.12,0.08-0.18
			c0,0,0,0,0-0.01c0.07-0.15,0.13-0.31,0.19-0.47c0.01-0.02,0.02-0.05,0.03-0.08c0.08-0.2,0.15-0.4,0.21-0.6
			c0.1-0.28,0.19-0.56,0.26-0.85c0-0.02,0.01-0.04,0.02-0.06c0-0.01,0-0.02,0-0.02c0.06-0.23,0.12-0.47,0.17-0.71
			c0.02-0.05,0.03-0.1,0.04-0.15c0.04-0.22,0.08-0.44,0.11-0.66c0-0.02,0.01-0.03,0.01-0.05c0.04-0.27,0.08-0.53,0.11-0.8
			c0.02-0.27,0.04-0.54,0.06-0.81c0.01-0.17,0.01-0.35,0.01-0.53c0,0.03,0,0.05,0,0.08c0-0.03,0-0.06,0-0.09v-0.06
			c0-0.02,0-0.03,0.01-0.05c0,0.04,0,0.08,0,0.12c0-0.11,0.02-0.22,0.02-0.32C401.51,475.82,401.4,474.76,401.19,473.74z
			 M370.58,472.99c0,0.02-0.01,0.03-0.01,0.05c-0.01,0.02-0.01,0.04-0.02,0.07C370.56,473.06,370.56,473.03,370.58,472.99z
			 M385.79,467.2c2.85,0,5.41,1.23,7.19,3.19c0.73,0.8,1.33,1.73,1.76,2.74c0.12,0.29,0.24,0.59,0.33,0.89
			c0.05,0.15,0.09,0.31,0.13,0.46c0.19,0.78,0.3,1.59,0.3,2.43c0,0.67-0.07,1.32-0.19,1.96c-0.03,0.18-0.08,0.35-0.13,0.53
			c-0.08,0.32-0.18,0.63-0.3,0.94c-0.04,0.12-0.09,0.23-0.14,0.35c-0.05,0.14-0.12,0.28-0.19,0.43c-0.48,0.99-1.12,1.89-1.89,2.66
			c-1.76,1.76-4.19,2.85-6.87,2.85c-2.66,0-5.08-1.08-6.84-2.83c-0.13-0.13-0.26-0.26-0.37-0.4c-0.36-0.39-0.68-0.81-0.96-1.25
			c-0.09-0.14-0.18-0.29-0.26-0.43c-0.09-0.15-0.17-0.3-0.24-0.45c-0.24-0.47-0.44-0.96-0.6-1.47c-0.05-0.15-0.09-0.31-0.13-0.46
			c-0.2-0.78-0.31-1.59-0.31-2.43C376.08,471.56,380.44,467.2,385.79,467.2z"/>
	</g>
</g>
</svg>
