<?xml version="1.0" encoding="utf-8"?>
<!-- Generator: Adobe Illustrator 27.1.1, SVG Export Plug-In . SVG Version: 6.00 Build 0)  -->
<svg version="1.1" id="Layer_1" xmlns="http://www.w3.org/2000/svg" xmlns:xlink="http://www.w3.org/1999/xlink" x="0px" y="0px"
	 viewBox="0 0 141.7 141.7" style="enable-background:new 0 0 141.7 141.7;" xml:space="preserve">
<style type="text/css">
	.st0{fill:#ECA93B;}
</style>
<path class="st0" d="M26,40.9C15.7,56,17.5,91.1,19.5,93.4c5.9,6.3,69.6,11.2,92.9,3.8c4.9-2,17-42.9,11.7-45.9
	c-2.8-1.6-38.2,17.9-50.9,18.9C62.2,71,49.8,56.1,32.9,52.4c-2.4-0.5-3.4-2.5-2.4-3.9c1-1.4,4.3-2.3,7.2-1.2
	c12.8,5.2,22.9,15.8,30,15.6c14.1-0.3,42.8-12.6,58.4-16.4c1-0.2,2.7-0.7,2.8,0.2c5.4,26-7.8,53.5-9.5,54.9c-1.1,0.9-8.1,5-54.8,5.2
	c-10.8,0.1-41.1-2.4-50.7-6.3c-2.2-0.9-3.4-10.5-1.4-27.4c1.7-14.2,8.5-35.9,11.5-36.4c34.1-5.9,116.3-3.1,115.7-3.5
	c-10.1-7.4-120.4-6.7-123.1-1C1.9,62.9-0.3,105.8,3.8,107.5c22.9,9.6,117.9,8.3,123.9-2c3.5-6.1,12.7-44.9,12.1-64.1
	C86.7,33.8,27.9,38.1,26,40.9"/>
</svg>
